<svg xmlns="http://www.w3.org/2000/svg" height="22" id="S_Export_22_N" viewBox="0 0 22 22" width="22">
  <defs>
    <style>
      .fill {
        fill: rgb( 75, 75, 75 );
      }

      
    </style>
  </defs>
  <rect id="Canvas" fill="#ff13dc" opacity="0" width="22" height="22" /><path class="fill" d="M15.5,16h-1a.5.5,0,0,0-.5.5V18H4V4H14V5.5a.5.5,0,0,0,.5.5h1a.5.5,0,0,0,.5-.5v-3a.5.5,0,0,0-.5-.5H2.5a.5.5,0,0,0-.5.5v17a.5.5,0,0,0,.5.5h13a.5.5,0,0,0,.5-.5v-3A.5.5,0,0,0,15.5,16Z" />
  <path class="fill" d="M21.428,10.825,17.666,7.1A.389.389,0,0,0,17.4,7a.4.4,0,0,0-.4.4V10H12.5a.5.5,0,0,0-.5.5v1a.5.5,0,0,0,.5.5H17v2.6a.4.4,0,0,0,.4.4.394.394,0,0,0,.264-.1l3.762-3.723a.249.249,0,0,0,0-.35Z" />
  </svg>