<svg xmlns="http://www.w3.org/2000/svg" height="22" id="S_Edit_22_N" viewBox="0 0 22 22" width="22">
  <defs>
    <style>
      .fill {
        fill: #ffffff;
      }

      
    </style>
  </defs>
  <rect id="Canvas" fill="#ff13dc" opacity="0" width="22" height="22" /><path class="fill" d="M19.261,5.982,16.017,2.738a.682.682,0,0,0-.487-.2h-.022a.773.773,0,0,0-.522.229L4.233,13.522a.57.57,0,0,0-.142.237L2.528,19c-.064.212.259.478.441.478a.2.2,0,0,0,.035,0c.155-.036,4.427-1.319,5.24-1.564a.552.552,0,0,0,.233-.14L19.231,7.013a.772.772,0,0,0,.227-.5A.69.69,0,0,0,19.261,5.982ZM4,18.005l1.13-3.788,2.656,2.65C6.569,17.232,5.049,17.691,4,18.005Z" />
  </svg>
